<svg id="Capa_1" data-name="Capa 1" xmlns="http://www.w3.org/2000/svg" xmlns:xlink="http://www.w3.org/1999/xlink" viewBox="0 0 188.08 188.08"><defs><style>.cls-1{fill:none;}.cls-2{clip-path:url(#clip-path);}.cls-3{fill:#fff;}.cls-4{fill:#98bf13;}.cls-5{fill:#1f140f;}</style><clipPath id="clip-path"><circle class="cls-1" cx="94.04" cy="94.04" r="87.4"/></clipPath></defs><g class="cls-2"><path class="cls-3" d="M79.49,108.26c1.65,7.65-6,13.89-13.54,14.38-10.72.7-13.84-4.57-15.56-13.93-1.2-6.5,6.87-16.32,13.49-16.12C73.58,92.87,79.26,98.19,79.49,108.26Zm-15.9,8.48c6.22,0,11-3.53,11-8.13,0-6.1-3.57-9.89-9.06-10-5.77-.12-10.2,4.83-10.17,8.22C55.37,111.82,59.4,116.76,63.59,116.74Z"/><path class="cls-3" d="M103.81,106.05c0-7.47,5.79-14.27,12.23-13.78,9.52.73,16.85,5.41,16.54,17.17-.16,6.1-6.91,12.42-13.4,12.63C108.43,122.44,104.3,115.93,103.81,106.05Zm13.61,9.56c5.89,0,9.6-3.17,9.55-8-.07-6.08-4-10.53-9.14-10.46-5.39.07-9.59,3.87-9.39,8.71C108.62,110.24,111.8,116.56,117.42,115.61Z"/><path class="cls-4" d="M63.59,116.74c-4.19,0-8.22-4.92-8.27-9.92,0-3.39,4.4-8.34,10.17-8.22,5.49.12,9.08,3.91,9.06,10C74.54,113.21,69.81,116.72,63.59,116.74Z"/><path class="cls-4" d="M117.42,115.61c-5.62,1-8.8-5.37-9-9.8-.2-4.84,4-8.64,9.39-8.71,5.19-.07,9.07,4.38,9.14,10.46C127,112.44,123.31,115.57,117.42,115.61Z"/><path d="M32.84,173.66c0-4.58-.34-33.7.38-38.17,1.31-8.09,3.26-16.09,5.19-24.07.62-2.59,2.3-4.92,2.93-7.51,1-4.16,1.41-8.47,2.37-12.65.36-1.6,1.7-3,2.33-4.53a40.87,40.87,0,0,0,1.63-5.43c.66-2.62.84-5.44,1.91-7.86,2.71-6.1,4.2-12.83,8.85-18,.72-.79,1.28-1.75,2.06-2.46,2.55-2.32,5.81-1.68,7.12,1.46,1.09,2.64,2,5.37,2.9,8.08,1.19,3.39,2.43,6.77,3.46,10.22.52,1.76,1.62,2.15,3,1.7,6.35-2,12.8-.89,19.18-.6a85.6,85.6,0,0,1,14.29,1.76c3.14.69,4.05-1,5.13-3C118.39,67.31,121,62,124,56.81c1.35-2.29,4.62-7.5,6.3-8,2.86-.88,3.52,3.39,4.63,5.79,5.41,11.72,8.63,24.13,11.65,36.59,1.68,6.94,3.38,13.88,4.68,20.89s2.31,14.28,3.2,21.45c.65,5.21.91,26.68,1.35,31.92C129.6,177.2,93.51,195.68,32.84,173.66Zm49.28-65.4c-.22-10.07-5.91-15.39-15.61-15.67-6.62-.2-14.68,9.62-13.49,16.12,1.73,9.36,4.84,14.63,15.56,13.93C76.09,122.15,83.77,115.91,82.12,108.26Zm24.32-2.21c.49,9.88,4.62,16.39,15.37,16,6.49-.21,13.24-6.53,13.4-12.63.31-11.76-7-16.44-16.54-17.17C112.24,91.78,106.43,98.58,106.44,106.05Z"/><path class="cls-4" d="M65.44,32.35s4,4.38,8.62,3.06,17-13.16,29.25-9.21,9.61,12.27,18.17,9.42-5.36,10.32-13.54,12.3-8.53-2.09-20,0c-7.77,1.41-12-8.27-12-8.27s-1.08-2.91-2.46-2.56a37.63,37.63,0,0,1-9,1.16C63.41,37.23,64,32.78,65.44,32.35Z"/><path class="cls-3" d="M80.41,37.09a55.68,55.68,0,0,1,7.64-2.21c1.31-.25,2.62-.47,4-.61a14.78,14.78,0,0,1,4,0A29.12,29.12,0,0,1,103.55,37a22.45,22.45,0,0,0,7.52,2.23,19.34,19.34,0,0,1-7.73-1.75c-2.47-1-4.85-2.17-7.41-2.52a27.53,27.53,0,0,0-7.76.51C85.57,35.92,83,36.5,80.41,37.09Z"/><path class="cls-3" d="M98.35,133.54A18.21,18.21,0,0,0,93.76,140s-.69-3.39-7.26-8c-1-.68,1.22-3.18,2.6-4.61a3.36,3.36,0,0,1,2.43-1h3.69A3.39,3.39,0,0,1,98,127.7l.93,1.3A3.38,3.38,0,0,1,98.35,133.54Z"/><path class="cls-3" d="M98.37,133.56a13.57,13.57,0,0,0-2.56,3A27.63,27.63,0,0,0,94,140l-.24.54-.18-.59a11.31,11.31,0,0,0-2-3.43,21.91,21.91,0,0,0-2.87-2.91c-.53-.42-1.07-.85-1.63-1.24l-.41-.3a1,1,0,0,1-.4-.4,1.46,1.46,0,0,1,.13-1.09,14.49,14.49,0,0,1,2.46-3.34,3.59,3.59,0,0,1,1.82-1.14,9.57,9.57,0,0,1,2.11-.13h2.05A3.68,3.68,0,0,1,98.41,128a8.05,8.05,0,0,1,1,1.81A3.56,3.56,0,0,1,98.37,133.56Zm0,0a3.24,3.24,0,0,0,.87-3.67,8.41,8.41,0,0,0-1.13-1.66,3.44,3.44,0,0,0-3.29-1.66H92.74a9.25,9.25,0,0,0-2,.07,3.18,3.18,0,0,0-1.62,1,14.58,14.58,0,0,0-2.54,3.14,1.22,1.22,0,0,0-.16.89c.09.23.46.43.71.64.56.4,1.08.85,1.62,1.27a33.37,33.37,0,0,1,3,2.82A9.73,9.73,0,0,1,94,139.91l-.42,0a18.91,18.91,0,0,1,2.06-3.43A17.87,17.87,0,0,1,98.34,133.52Z"/><path d="M64.36,107.15c-1.8,0-3.54-2.32-3.56-4.67a4.45,4.45,0,0,1,4.37-3.88c2.37.06,3.91,1.84,3.9,4.72C69.07,105.49,67,107.14,64.36,107.15Z"/><path d="M116.82,105.65c-1.81,0-3.54-2.32-3.56-4.68a4.43,4.43,0,0,1,4.37-3.87c2.36.05,3.91,1.84,3.9,4.71C121.53,104,119.49,105.64,116.82,105.65Z"/><path class="cls-3" d="M64.66,102.88c-.86,0-1.68-1-1.69-2.11A2.06,2.06,0,0,1,65.05,99a1.89,1.89,0,0,1,1.86,2.13C66.9,102.12,65.93,102.87,64.66,102.88Z"/><path class="cls-3" d="M65.21,103.86a.92.92,0,0,1-.85-.86c0-.29.45-.72,1-.71a.84.84,0,0,1,.93.86C66.33,103.55,65.85,103.86,65.21,103.86Z"/><path class="cls-3" d="M116.47,101a1.86,1.86,0,0,1-1.7-1.78c0-.61.91-1.49,2.09-1.47a1.73,1.73,0,0,1,1.87,1.79C118.73,100.31,117.75,100.94,116.47,101Z"/><path class="cls-3" d="M117,102.57c-.56,0-1.1-.76-1.1-1.53a1.39,1.39,0,0,1,1.35-1.27c.73,0,1.21.6,1.2,1.54A1.35,1.35,0,0,1,117,102.57Z"/><path class="cls-5" d="M77.63,144.76C90.15,151,93.76,140,93.76,140s4.82,11.38,17.19,3.85"/><path class="cls-3" d="M77.65,144.71A21,21,0,0,0,82.27,146a14,14,0,0,0,2.32.14,10.38,10.38,0,0,0,2.24-.37,9,9,0,0,0,3.75-2.3,10.43,10.43,0,0,0,2.34-3.75l.7-1.95.95,1.89a12.71,12.71,0,0,0,2.78,3.74,9.07,9.07,0,0,0,4.09,2.14,10.23,10.23,0,0,0,4.76-.07,21.23,21.23,0,0,0,4.72-1.66l.06.08a18.81,18.81,0,0,1-4.63,2.11,10.84,10.84,0,0,1-5.06.33,9.55,9.55,0,0,1-4.55-2.23A12.47,12.47,0,0,1,93.67,140h.18a11.48,11.48,0,0,1-2.64,4.08,9,9,0,0,1-4.2,2.38,11,11,0,0,1-4.84,0,19,19,0,0,1-4.56-1.65Z"/></g></svg>