<svg id="Capa_1" data-name="Capa 1" xmlns="http://www.w3.org/2000/svg" viewBox="0 0 188.08 188.08"><defs><style>.cls-1{fill:currentColor;}.cls-2{fill:#98bf13;}.cls-3{fill:#fff;}</style></defs><path class="cls-1" d="M96.29,63.33a4.94,4.94,0,0,1-3.53-1A4.43,4.43,0,0,1,91.08,59a8,8,0,0,1,1.06-4.31c.9-1.68,2-2.57,3.24-2.65a6.06,6.06,0,0,1,2.24.31c1,.32,1.6.77,1.63,1.34a1,1,0,0,1-.2.7.78.78,0,0,1-.6.34.83.83,0,0,1-.52-.14l-.44-.32a3.17,3.17,0,0,0-2-.34c-.68,0-1.32.7-1.91,2a6.29,6.29,0,0,0-.71,3,2.57,2.57,0,0,0,1,2,3.24,3.24,0,0,0,2.22.57A3.19,3.19,0,0,0,97.43,61l1.12-.71a1.32,1.32,0,0,1,.42-.19.91.91,0,0,1,.67.25,1,1,0,0,1,.32.67c0,.49-.45,1-1.46,1.52A5.73,5.73,0,0,1,96.29,63.33Z"/><path class="cls-1" d="M105.86,62.89a3.94,3.94,0,0,1-2.94-1.2A5.35,5.35,0,0,1,101.43,58a6.54,6.54,0,0,1,1.09-4,4.5,4.5,0,0,1,3.9-2.11,3.33,3.33,0,0,1,3.09,1.79,7.16,7.16,0,0,1,.85,3.58A6.54,6.54,0,0,1,109.25,61,4,4,0,0,1,105.86,62.89Zm.46-9A2.54,2.54,0,0,0,104,55.33a5.09,5.09,0,0,0-.61,2.61,3.12,3.12,0,0,0,.83,2.27,2.14,2.14,0,0,0,1.58.65,2.44,2.44,0,0,0,1.79-.8,3.25,3.25,0,0,0,.87-2.3Q108.57,53.85,106.32,53.88Z"/><path class="cls-1" d="M115.56,54.43l-.28,5c0,.53-.06,1.31-.14,2.34-.08.67-.42,1-1,1s-1-.37-1-1,.08-2,.2-3.67.18-2.85.2-3.66c0-1.06.07-2.28.14-3.64s.12-2.59.14-3.65a1,1,0,1,1,2,0c0,1.06-.07,2.28-.14,3.64S115.58,53.37,115.56,54.43Z"/><path class="cls-1" d="M122,63.27a3.91,3.91,0,0,1-2.83-1.44A5.36,5.36,0,0,1,118,58a6.55,6.55,0,0,1,1.41-3.93,4.51,4.51,0,0,1,4.06-1.78,3.29,3.29,0,0,1,2.93,2A7.15,7.15,0,0,1,127,58a6.52,6.52,0,0,1-1.42,3.74A4,4,0,0,1,122,63.27Zm1.19-9a2.53,2.53,0,0,0-2.39,1.26,5.15,5.15,0,0,0-.83,2.56,3.11,3.11,0,0,0,.65,2.32,2.12,2.12,0,0,0,1.52.78,2.47,2.47,0,0,0,1.85-.65,3.23,3.23,0,0,0,1-2.22C125.33,55.77,124.71,54.43,123.21,54.32Z"/><path class="cls-1" d="M136.54,64.83a.92.92,0,0,1-.86-1.06l0-2.23a19,19,0,0,1,.12-2.21c0-.18.07-.5.15-.94s.13-.77.15-1c.17-1.45,0-2.2-.54-2.26a2.84,2.84,0,0,0-2.31,1.07,9.28,9.28,0,0,0-1.81,2.9c0,.26-.11.58-.2,1a8.93,8.93,0,0,0-.18,1c0,.2,0,.51,0,.91s0,.71,0,.91a1,1,0,0,1-.37.7,1,1,0,0,1-.74.2.94.94,0,0,1-.67-.37,1,1,0,0,1-.19-.76c0-.2,0-.51,0-.91a8.54,8.54,0,0,1,0-.91q.12-1,.48-2.85c.25-1.2.41-2.15.49-2.84,0-.21.05-.53.08-.95s0-.75.08-1a.93.93,0,0,1,.37-.67,1,1,0,0,1,.74-.19c.61.07.9.54.85,1.42L132.05,55c1.3-1.37,2.54-2,3.73-1.84a2.26,2.26,0,0,1,2.06,1.68,7.44,7.44,0,0,1,.14,2.84l-.12,1-.12.93a13.35,13.35,0,0,0,0,2.17,14.56,14.56,0,0,1,0,2.17,1,1,0,0,1-.37.68A1,1,0,0,1,136.54,64.83Z"/><path class="cls-1" d="M142.57,60.42c-.06.4-.15,1-.25,1.79s-.19,1.4-.25,1.8a1,1,0,0,1-.39.67,1,1,0,0,1-.75.17,1,1,0,0,1-.66-.39,1.06,1.06,0,0,1-.16-.77c.07-.39.15-1,.26-1.79s.19-1.39.25-1.79c.1-.63.26-1.4.48-2.32s.37-1.7.47-2.32a1,1,0,0,1,.39-.68.93.93,0,0,1,.75-.17,1,1,0,0,1,.66.39,1,1,0,0,1,.15.77c-.1.63-.26,1.4-.47,2.32S142.67,59.8,142.57,60.42Zm.86-8.16a1.19,1.19,0,0,1-.78-.47,1.09,1.09,0,0,1-.21-.87,1.12,1.12,0,0,1,.48-.77,1.19,1.19,0,0,1,.88-.2,1.17,1.17,0,0,1,.77.47,1.13,1.13,0,0,1,.21.87,1.08,1.08,0,0,1-.48.76A1.13,1.13,0,0,1,143.43,52.26Z"/><path class="cls-1" d="M152.65,67.68c-.13,0-.33-.21-.59-.57a4.08,4.08,0,0,1-.52-.86,11.84,11.84,0,0,1-1.83.44,3.84,3.84,0,0,1-1.26,0,4.19,4.19,0,0,1-3.11-2,6,6,0,0,1-.24-4A5.82,5.82,0,0,1,147.58,57a5.39,5.39,0,0,1,4.28-.9,5.05,5.05,0,0,1,1.83.83c.82.55,1.18,1.09,1.08,1.61a.69.69,0,0,1-.3.43,8,8,0,0,0-.4,1.21c-.15.56-.32,1.3-.51,2.19a8.59,8.59,0,0,0-.23,2,14.89,14.89,0,0,0,.28,1.87q0,.2.12.57l0,.18a.89.89,0,0,1-.41.6A.94.94,0,0,1,152.65,67.68ZM152,60.4c.06-.29.14-.59.24-.92s.23-.67.38-1a4.37,4.37,0,0,0-.57-.4,1.31,1.31,0,0,0-.4-.18,3.51,3.51,0,0,0-2.9.72,4.29,4.29,0,0,0-1.7,2.66,4.24,4.24,0,0,0,.09,2.55A2,2,0,0,0,148.67,65a3.5,3.5,0,0,0,1.68,0,5.55,5.55,0,0,0,1.16-.55A37.44,37.44,0,0,1,152,60.4Z"/><path class="cls-1" d="M52,99.47c-1.1.45-2.63-.56-4.61-3Q46.24,95,43.88,91.28q-1.73,1-4.41,2.86l-4.35,3c.05,1.8,0,4.51-.23,8.1a1.88,1.88,0,0,1-1.14,1.65,2,2,0,0,1-1.49,0,1.88,1.88,0,0,1-1.1-1.06q-.35-.86,0-7.64a2,2,0,0,1-.74-1,2,2,0,0,1,1-2.58Q31.88,90,32.93,83.7q1.44-8.52,2.48-9c.94-.38,1.86,0,2.74,1.17l3.61,5.54,7.78,11.33,2.19,2.41A8,8,0,0,1,53,96.91a1.8,1.8,0,0,1,0,1.52A2,2,0,0,1,52,99.47ZM37.23,81.64,35.51,92c1.29-1,3.3-2.31,6-4Z"/><path class="cls-1" d="M58.69,81.1l2.4,9.3q.44,1.47,1.11,4.35a1.81,1.81,0,0,1-1.28,2.39,1.71,1.71,0,0,1-2.37-1.36c-.44-1.5-1-3.77-1.76-6.81S55.46,83.66,55,82.16c-.57-2-1.19-4.2-1.86-6.74s-1.3-4.78-1.86-6.74a1.69,1.69,0,0,1,1.28-2.38A1.7,1.7,0,0,1,55,67.62q.84,2.92,1.85,6.74T58.69,81.1Z"/><path class="cls-1" d="M82.29,74c.2,1.89.49,3.76.85,5.62a57.68,57.68,0,0,0,2.43,9.44,2.93,2.93,0,0,1,.12.43,1.67,1.67,0,0,1-.29,1.36,1.77,1.77,0,0,1-1.14.73c-.78.15-1.47-.31-2.05-1.38a10.94,10.94,0,0,1-2.55,2.07,9.49,9.49,0,0,1-3,1.11,8.94,8.94,0,0,1-7-1.36,9.54,9.54,0,0,1-4-6.37A12.12,12.12,0,0,1,66.8,77a9.07,9.07,0,0,1,6.39-4.41,7.1,7.1,0,0,1,3.53,0l2,1c-.85-5.37-1.34-9-1.45-10.89,0-1.16.41-1.83,1.4-2,1.15-.23,1.85.28,2.08,1.5Q81.3,64.82,82.29,74ZM74,76.11a6,6,0,0,0-4.42,2.81q-1.23,2.2-.49,6a5.87,5.87,0,0,0,2.55,3.88,5.64,5.64,0,0,0,4.41,1,5.83,5.83,0,0,0,2.58-1.11,14.73,14.73,0,0,0,1.81-2,5.21,5.21,0,0,0,.43-.7l-.69-3.27-.41-2.21-.39-2.25A5.42,5.42,0,0,0,77,76.33,5.34,5.34,0,0,0,74,76.11Z"/><path class="cls-1" d="M105.3,90.39c-.24,0-.7-.23-1.39-.75a8.59,8.59,0,0,1-1.39-1.32,25.53,25.53,0,0,1-3.15,1.76,7,7,0,0,1-2.32.68c-3,.22-5.26-.46-6.76-2.06S88,84.81,87.8,81.52a11.09,11.09,0,0,1,2.63-8.22,10.27,10.27,0,0,1,7.42-3.88,9.69,9.69,0,0,1,3.82.59c1.8.59,2.74,1.39,2.82,2.41a1.37,1.37,0,0,1-.32,1,13.57,13.57,0,0,0-.12,2.43c0,1.13.07,2.56.19,4.31a15.58,15.58,0,0,0,.6,3.76,30.77,30.77,0,0,0,1.47,3.3c.11.23.28.56.52,1l.14.32a1.63,1.63,0,0,1-.45,1.31A1.77,1.77,0,0,1,105.3,90.39Zm-5-13.11a17.7,17.7,0,0,1,0-1.81c0-.66.08-1.35.16-2.1a9,9,0,0,0-1.26-.45,2.58,2.58,0,0,0-.83-.11,6.74,6.74,0,0,0-5,2.82,9.23,9.23,0,0,0-.29,10.44,3.86,3.86,0,0,0,3.47,1.34,6.78,6.78,0,0,0,3.1-.91,11.53,11.53,0,0,0,1.84-1.61A69.56,69.56,0,0,1,100.31,77.28Z"/><path class="cls-1" d="M133.83,91.91a1.74,1.74,0,0,1-1.75-1.8c-.14-1.43-.25-3.44-.31-6l-.28-6a14.06,14.06,0,0,0-.49-2.65q-.56-1.78-1.32-1.83a6.74,6.74,0,0,0-2.74,1,11.53,11.53,0,0,0-2.55,1.64c-.09,1.21-.13,2.42-.13,3.63l.25,5.2a41.62,41.62,0,0,1,0,5.06,1.93,1.93,0,0,1-.62,1.36,1.95,1.95,0,0,1-2.72-.17,1.92,1.92,0,0,1-.44-1.43c.1-1.56.08-3.87,0-6.93s-.13-5.38,0-6.93a7.07,7.07,0,0,0-.37-3.22,9.41,9.41,0,0,0-2.87,1.83L115,77.07A11.43,11.43,0,0,1,114,78.23c0,.77-.19,1.9-.43,3.4s-.38,2.6-.42,3.32a9.31,9.31,0,0,0,.08,1.64,9.64,9.64,0,0,1,.09,1.51,1.77,1.77,0,0,1-.68,1.3,1.91,1.91,0,0,1-1.41.45q-2.18-.13-1.87-5.1c.05-.77.2-1.91.43-3.44s.39-2.66.43-3.44,0-1.71,0-3.08,0-2.4,0-3.1q.27-4.38,2.24-4.25a1.84,1.84,0,0,1,1.34.74,2,2,0,0,1,.54,1.47,10.81,10.81,0,0,1-.17,1.13A10.18,10.18,0,0,0,114,72l-.09,2a11.72,11.72,0,0,1,3.19-3.55A5.67,5.67,0,0,1,120.51,69a4.18,4.18,0,0,1,4,3.28,7,7,0,0,1,2.66-2,7.69,7.69,0,0,1,3.41-.49c2.14.14,3.54,1.39,4.18,3.75a54.11,54.11,0,0,1,.45,5.48c.22,2.23.45,6,.69,11.14a1.6,1.6,0,0,1-.61,1.29A2,2,0,0,1,133.83,91.91Z"/><path class="cls-1" d="M153.72,95.55c-.24,0-.62-.42-1.14-1.1a9,9,0,0,1-1-1.64,25.09,25.09,0,0,1-3.5.84,7,7,0,0,1-2.41,0c-3-.6-4.94-1.87-6-3.81s-1.11-4.35-.45-7.59a11,11,0,0,1,4.74-7.2,10.32,10.32,0,0,1,8.19-1.74,10,10,0,0,1,3.53,1.6C157.3,76,158,77,157.79,78a1.32,1.32,0,0,1-.57.84,14,14,0,0,0-.77,2.31c-.29,1.08-.62,2.48-1,4.2a15.89,15.89,0,0,0-.43,3.78,29.08,29.08,0,0,0,.52,3.58c0,.24.12.61.23,1.09l.05.35a1.73,1.73,0,0,1-.78,1.14A1.78,1.78,0,0,1,153.72,95.55Zm-1.27-14a16.35,16.35,0,0,1,.46-1.75c.2-.63.44-1.28.73-2a10,10,0,0,0-1.1-.77,2.7,2.7,0,0,0-.77-.33,6.68,6.68,0,0,0-5.55,1.37,9.26,9.26,0,0,0-3.1,10,3.85,3.85,0,0,0,3,2.23,6.8,6.8,0,0,0,3.22,0,11.81,11.81,0,0,0,2.21-1A68.79,68.79,0,0,1,152.45,81.58Z"/><path class="cls-2" d="M51.8,117.77s5.72,6.3,12.4,4.4,24.49-18.94,42.11-13.26,13.83,17.66,26.15,13.57-7.72,14.85-19.49,17.69-12.28-3-28.83,0c-11.18,2-17.2-11.9-17.2-11.9s-1.55-4.18-3.55-3.67a54.34,54.34,0,0,1-13,1.65C48.87,124.79,49.74,118.39,51.8,117.77Z"/><path class="cls-3" d="M73.35,124.6a73,73,0,0,1,11-3.27c1.88-.37,3.77-.7,5.69-.9a21.56,21.56,0,0,1,5.84,0c3.9.65,7.4,2.39,10.82,4a33,33,0,0,0,10.79,3.29,27.45,27.45,0,0,1-11.15-2.45c-3.56-1.37-7-3.1-10.64-3.6a40.1,40.1,0,0,0-11.15.72C80.79,123,77.07,123.79,73.35,124.6Z"/></svg>